<mxfile host="Electron" agent="Mozilla/5.0 (Windows NT 10.0; Win64; x64) AppleWebKit/537.36 (KHTML, like Gecko) draw.io/27.0.9 Chrome/134.0.6998.205 Electron/35.4.0 Safari/537.36" version="27.0.9">
  <diagram name="Page-1" id="_TWETugIjKQeBXARTcvR">
    <mxGraphModel dx="1429" dy="3298" grid="1" gridSize="10" guides="1" tooltips="1" connect="1" arrows="1" fold="1" page="1" pageScale="1" pageWidth="850" pageHeight="1100" math="0" shadow="0">
      <root>
        <mxCell id="0" />
        <mxCell id="1" parent="0" />
        <mxCell id="sfGrmgE_HAS5Mbok9vDj-1" value="гість&lt;div&gt;&lt;br&gt;&lt;/div&gt;" style="shape=umlActor;verticalLabelPosition=bottom;verticalAlign=top;html=1;" vertex="1" parent="1">
          <mxGeometry x="160" y="-620" width="30" height="60" as="geometry" />
        </mxCell>
        <mxCell id="sfGrmgE_HAS5Mbok9vDj-11" value="" style="endArrow=none;html=1;rounded=0;" edge="1" parent="1" source="sfGrmgE_HAS5Mbok9vDj-1" target="sfGrmgE_HAS5Mbok9vDj-5">
          <mxGeometry width="50" height="50" relative="1" as="geometry">
            <mxPoint x="130" y="-250" as="sourcePoint" />
            <mxPoint x="180" y="-300" as="targetPoint" />
          </mxGeometry>
        </mxCell>
        <mxCell id="sfGrmgE_HAS5Mbok9vDj-12" value="" style="endArrow=none;html=1;rounded=0;" edge="1" parent="1" source="sfGrmgE_HAS5Mbok9vDj-1" target="sfGrmgE_HAS5Mbok9vDj-6">
          <mxGeometry width="50" height="50" relative="1" as="geometry">
            <mxPoint x="170" y="-125" as="sourcePoint" />
            <mxPoint x="325" y="-330" as="targetPoint" />
          </mxGeometry>
        </mxCell>
        <mxCell id="sfGrmgE_HAS5Mbok9vDj-13" value="" style="endArrow=none;html=1;rounded=0;" edge="1" parent="1" source="sfGrmgE_HAS5Mbok9vDj-1" target="sfGrmgE_HAS5Mbok9vDj-7">
          <mxGeometry width="50" height="50" relative="1" as="geometry">
            <mxPoint x="130" y="-125" as="sourcePoint" />
            <mxPoint x="285" y="-240" as="targetPoint" />
          </mxGeometry>
        </mxCell>
        <mxCell id="sfGrmgE_HAS5Mbok9vDj-14" value="" style="endArrow=none;html=1;rounded=0;" edge="1" parent="1" source="sfGrmgE_HAS5Mbok9vDj-1" target="sfGrmgE_HAS5Mbok9vDj-8">
          <mxGeometry width="50" height="50" relative="1" as="geometry">
            <mxPoint x="200" y="-185" as="sourcePoint" />
            <mxPoint x="355" y="-200" as="targetPoint" />
          </mxGeometry>
        </mxCell>
        <mxCell id="sfGrmgE_HAS5Mbok9vDj-15" value="" style="endArrow=none;html=1;rounded=0;" edge="1" parent="1" source="sfGrmgE_HAS5Mbok9vDj-1" target="sfGrmgE_HAS5Mbok9vDj-9">
          <mxGeometry width="50" height="50" relative="1" as="geometry">
            <mxPoint x="100" y="-260" as="sourcePoint" />
            <mxPoint x="295" y="-115" as="targetPoint" />
          </mxGeometry>
        </mxCell>
        <mxCell id="sfGrmgE_HAS5Mbok9vDj-16" value="" style="group" vertex="1" connectable="0" parent="1">
          <mxGeometry x="230" y="-480" width="300" height="480" as="geometry" />
        </mxCell>
        <mxCell id="sfGrmgE_HAS5Mbok9vDj-4" value="основні функції" style="shape=umlFrame;whiteSpace=wrap;html=1;pointerEvents=0;" vertex="1" parent="sfGrmgE_HAS5Mbok9vDj-16">
          <mxGeometry width="300" height="480" as="geometry" />
        </mxCell>
        <mxCell id="sfGrmgE_HAS5Mbok9vDj-5" value="пошук серверів" style="ellipse;whiteSpace=wrap;html=1;" vertex="1" parent="sfGrmgE_HAS5Mbok9vDj-16">
          <mxGeometry x="80" width="140" height="70" as="geometry" />
        </mxCell>
        <mxCell id="sfGrmgE_HAS5Mbok9vDj-6" value="перегляд списку серверів" style="ellipse;whiteSpace=wrap;html=1;" vertex="1" parent="sfGrmgE_HAS5Mbok9vDj-16">
          <mxGeometry x="80" y="90" width="140" height="70" as="geometry" />
        </mxCell>
        <mxCell id="sfGrmgE_HAS5Mbok9vDj-7" value="перегляд деталей сервера" style="ellipse;whiteSpace=wrap;html=1;" vertex="1" parent="sfGrmgE_HAS5Mbok9vDj-16">
          <mxGeometry x="80" y="190" width="140" height="70" as="geometry" />
        </mxCell>
        <mxCell id="sfGrmgE_HAS5Mbok9vDj-8" value="Реєстрація" style="ellipse;whiteSpace=wrap;html=1;" vertex="1" parent="sfGrmgE_HAS5Mbok9vDj-16">
          <mxGeometry x="80" y="290" width="140" height="70" as="geometry" />
        </mxCell>
        <mxCell id="sfGrmgE_HAS5Mbok9vDj-9" value="вхід в акаунт" style="ellipse;whiteSpace=wrap;html=1;" vertex="1" parent="sfGrmgE_HAS5Mbok9vDj-16">
          <mxGeometry x="80" y="390" width="140" height="70" as="geometry" />
        </mxCell>
        <mxCell id="sfGrmgE_HAS5Mbok9vDj-17" value="зареєстрований користувач&lt;div&gt;&lt;br&gt;&lt;/div&gt;" style="shape=umlActor;verticalLabelPosition=bottom;verticalAlign=top;html=1;" vertex="1" parent="1">
          <mxGeometry x="550" y="-620" width="30" height="60" as="geometry" />
        </mxCell>
        <mxCell id="sfGrmgE_HAS5Mbok9vDj-19" value="Extends" style="endArrow=block;endSize=16;endFill=0;html=1;rounded=0;" edge="1" parent="1" source="sfGrmgE_HAS5Mbok9vDj-17" target="sfGrmgE_HAS5Mbok9vDj-1">
          <mxGeometry width="160" relative="1" as="geometry">
            <mxPoint x="685" y="-720" as="sourcePoint" />
            <mxPoint x="275" y="-660" as="targetPoint" />
            <Array as="points" />
          </mxGeometry>
        </mxCell>
        <mxCell id="sfGrmgE_HAS5Mbok9vDj-28" value="" style="group" vertex="1" connectable="0" parent="1">
          <mxGeometry x="560" y="-290" width="330" height="290" as="geometry" />
        </mxCell>
        <mxCell id="sfGrmgE_HAS5Mbok9vDj-21" value="функції зареєстрованого користувача" style="shape=umlFrame;whiteSpace=wrap;html=1;pointerEvents=0;width=110;height=40;" vertex="1" parent="sfGrmgE_HAS5Mbok9vDj-28">
          <mxGeometry width="330" height="290" as="geometry" />
        </mxCell>
        <mxCell id="sfGrmgE_HAS5Mbok9vDj-22" value="додати сервер в обрані" style="ellipse;whiteSpace=wrap;html=1;" vertex="1" parent="sfGrmgE_HAS5Mbok9vDj-28">
          <mxGeometry x="170" y="10" width="141.67" height="70" as="geometry" />
        </mxCell>
        <mxCell id="sfGrmgE_HAS5Mbok9vDj-23" value="голосувати за сервер" style="ellipse;whiteSpace=wrap;html=1;" vertex="1" parent="sfGrmgE_HAS5Mbok9vDj-28">
          <mxGeometry x="170" y="100" width="141.67" height="70" as="geometry" />
        </mxCell>
        <mxCell id="sfGrmgE_HAS5Mbok9vDj-24" value="залишити відгук про сервер" style="ellipse;whiteSpace=wrap;html=1;" vertex="1" parent="sfGrmgE_HAS5Mbok9vDj-28">
          <mxGeometry x="170" y="190" width="141.67" height="70" as="geometry" />
        </mxCell>
        <mxCell id="sfGrmgE_HAS5Mbok9vDj-58" value="перегляд профілю" style="ellipse;whiteSpace=wrap;html=1;" vertex="1" parent="sfGrmgE_HAS5Mbok9vDj-28">
          <mxGeometry x="15" y="100" width="140" height="70" as="geometry" />
        </mxCell>
        <mxCell id="sfGrmgE_HAS5Mbok9vDj-66" value="редагування профілю" style="ellipse;whiteSpace=wrap;html=1;" vertex="1" parent="sfGrmgE_HAS5Mbok9vDj-28">
          <mxGeometry x="15" y="190" width="140" height="70" as="geometry" />
        </mxCell>
        <mxCell id="sfGrmgE_HAS5Mbok9vDj-29" value="" style="endArrow=none;html=1;rounded=0;" edge="1" parent="1" source="sfGrmgE_HAS5Mbok9vDj-17" target="sfGrmgE_HAS5Mbok9vDj-22">
          <mxGeometry width="50" height="50" relative="1" as="geometry">
            <mxPoint x="430" y="-590" as="sourcePoint" />
            <mxPoint x="480" y="-640" as="targetPoint" />
            <Array as="points" />
          </mxGeometry>
        </mxCell>
        <mxCell id="sfGrmgE_HAS5Mbok9vDj-30" value="" style="endArrow=none;html=1;rounded=0;" edge="1" parent="1" source="sfGrmgE_HAS5Mbok9vDj-17" target="sfGrmgE_HAS5Mbok9vDj-23">
          <mxGeometry width="50" height="50" relative="1" as="geometry">
            <mxPoint x="350" y="-580" as="sourcePoint" />
            <mxPoint x="460" y="-600" as="targetPoint" />
            <Array as="points" />
          </mxGeometry>
        </mxCell>
        <mxCell id="sfGrmgE_HAS5Mbok9vDj-31" value="" style="endArrow=none;html=1;rounded=0;" edge="1" parent="1" source="sfGrmgE_HAS5Mbok9vDj-17" target="sfGrmgE_HAS5Mbok9vDj-24">
          <mxGeometry width="50" height="50" relative="1" as="geometry">
            <mxPoint x="540" y="-580" as="sourcePoint" />
            <mxPoint x="590" y="-560" as="targetPoint" />
            <Array as="points" />
          </mxGeometry>
        </mxCell>
        <mxCell id="sfGrmgE_HAS5Mbok9vDj-33" value="адміністратор серверу" style="shape=umlActor;verticalLabelPosition=bottom;verticalAlign=top;html=1;outlineConnect=0;" vertex="1" parent="1">
          <mxGeometry x="910" y="-620" width="30" height="60" as="geometry" />
        </mxCell>
        <mxCell id="sfGrmgE_HAS5Mbok9vDj-34" value="Extends" style="endArrow=block;endSize=16;endFill=0;html=1;rounded=0;" edge="1" parent="1" source="sfGrmgE_HAS5Mbok9vDj-33" target="sfGrmgE_HAS5Mbok9vDj-17">
          <mxGeometry width="160" relative="1" as="geometry">
            <mxPoint x="890" y="-590" as="sourcePoint" />
            <mxPoint x="690" y="-580" as="targetPoint" />
          </mxGeometry>
        </mxCell>
        <mxCell id="sfGrmgE_HAS5Mbok9vDj-35" value="" style="group" vertex="1" connectable="0" parent="1">
          <mxGeometry x="940" y="-290" width="270" height="290" as="geometry" />
        </mxCell>
        <mxCell id="sfGrmgE_HAS5Mbok9vDj-36" value="керування сервером" style="shape=umlFrame;whiteSpace=wrap;html=1;pointerEvents=0;width=110;height=40;" vertex="1" parent="sfGrmgE_HAS5Mbok9vDj-35">
          <mxGeometry width="270" height="290" as="geometry" />
        </mxCell>
        <mxCell id="sfGrmgE_HAS5Mbok9vDj-37" value="редагувати сервер" style="ellipse;whiteSpace=wrap;html=1;" vertex="1" parent="sfGrmgE_HAS5Mbok9vDj-35">
          <mxGeometry x="115" y="10" width="140" height="70" as="geometry" />
        </mxCell>
        <mxCell id="sfGrmgE_HAS5Mbok9vDj-38" value="додати сервер" style="ellipse;whiteSpace=wrap;html=1;" vertex="1" parent="sfGrmgE_HAS5Mbok9vDj-35">
          <mxGeometry x="115" y="100" width="140" height="70" as="geometry" />
        </mxCell>
        <mxCell id="sfGrmgE_HAS5Mbok9vDj-39" value="переглянути статистику" style="ellipse;whiteSpace=wrap;html=1;" vertex="1" parent="sfGrmgE_HAS5Mbok9vDj-35">
          <mxGeometry x="115" y="190" width="140" height="70" as="geometry" />
        </mxCell>
        <mxCell id="sfGrmgE_HAS5Mbok9vDj-40" value="" style="endArrow=none;html=1;rounded=0;" edge="1" parent="1" source="sfGrmgE_HAS5Mbok9vDj-33" target="sfGrmgE_HAS5Mbok9vDj-37">
          <mxGeometry width="50" height="50" relative="1" as="geometry">
            <mxPoint x="740" y="-670" as="sourcePoint" />
            <mxPoint x="790" y="-720" as="targetPoint" />
          </mxGeometry>
        </mxCell>
        <mxCell id="sfGrmgE_HAS5Mbok9vDj-41" value="" style="endArrow=none;html=1;rounded=0;" edge="1" parent="1" source="sfGrmgE_HAS5Mbok9vDj-33" target="sfGrmgE_HAS5Mbok9vDj-38">
          <mxGeometry width="50" height="50" relative="1" as="geometry">
            <mxPoint x="1040" y="-630" as="sourcePoint" />
            <mxPoint x="790" y="-650" as="targetPoint" />
          </mxGeometry>
        </mxCell>
        <mxCell id="sfGrmgE_HAS5Mbok9vDj-42" value="" style="endArrow=none;html=1;rounded=0;" edge="1" parent="1" source="sfGrmgE_HAS5Mbok9vDj-33" target="sfGrmgE_HAS5Mbok9vDj-39">
          <mxGeometry width="50" height="50" relative="1" as="geometry">
            <mxPoint x="990" y="-620" as="sourcePoint" />
            <mxPoint x="830" y="-630" as="targetPoint" />
          </mxGeometry>
        </mxCell>
        <mxCell id="sfGrmgE_HAS5Mbok9vDj-50" value="система" style="shape=umlActor;verticalLabelPosition=bottom;verticalAlign=top;html=1;outlineConnect=0;" vertex="1" parent="1">
          <mxGeometry x="160" y="-760" width="30" height="60" as="geometry" />
        </mxCell>
        <mxCell id="sfGrmgE_HAS5Mbok9vDj-55" value="" style="endArrow=none;html=1;rounded=0;" edge="1" parent="1" source="sfGrmgE_HAS5Mbok9vDj-50" target="sfGrmgE_HAS5Mbok9vDj-52">
          <mxGeometry width="50" height="50" relative="1" as="geometry">
            <mxPoint x="540" y="-550" as="sourcePoint" />
            <mxPoint x="590" y="-600" as="targetPoint" />
          </mxGeometry>
        </mxCell>
        <mxCell id="sfGrmgE_HAS5Mbok9vDj-56" value="" style="endArrow=none;html=1;rounded=0;" edge="1" parent="1" source="sfGrmgE_HAS5Mbok9vDj-50" target="sfGrmgE_HAS5Mbok9vDj-53">
          <mxGeometry width="50" height="50" relative="1" as="geometry">
            <mxPoint x="420" y="-540" as="sourcePoint" />
            <mxPoint x="470" y="-590" as="targetPoint" />
          </mxGeometry>
        </mxCell>
        <mxCell id="sfGrmgE_HAS5Mbok9vDj-57" value="" style="group" vertex="1" connectable="0" parent="1">
          <mxGeometry x="275" y="-830" width="300" height="200" as="geometry" />
        </mxCell>
        <mxCell id="sfGrmgE_HAS5Mbok9vDj-51" value="Системні процеси" style="shape=umlFrame;whiteSpace=wrap;html=1;pointerEvents=0;width=80;height=40;" vertex="1" parent="sfGrmgE_HAS5Mbok9vDj-57">
          <mxGeometry width="300" height="200" as="geometry" />
        </mxCell>
        <mxCell id="sfGrmgE_HAS5Mbok9vDj-52" value="оновлення рейтингу" style="ellipse;whiteSpace=wrap;html=1;" vertex="1" parent="sfGrmgE_HAS5Mbok9vDj-57">
          <mxGeometry x="80" y="20" width="140" height="70" as="geometry" />
        </mxCell>
        <mxCell id="sfGrmgE_HAS5Mbok9vDj-53" value="моніторинг статусу" style="ellipse;whiteSpace=wrap;html=1;" vertex="1" parent="sfGrmgE_HAS5Mbok9vDj-57">
          <mxGeometry x="80" y="120" width="140" height="70" as="geometry" />
        </mxCell>
        <mxCell id="sfGrmgE_HAS5Mbok9vDj-67" value="" style="endArrow=none;html=1;rounded=0;" edge="1" parent="1" source="sfGrmgE_HAS5Mbok9vDj-58" target="sfGrmgE_HAS5Mbok9vDj-17">
          <mxGeometry width="50" height="50" relative="1" as="geometry">
            <mxPoint x="570" y="-390" as="sourcePoint" />
            <mxPoint x="620" y="-440" as="targetPoint" />
          </mxGeometry>
        </mxCell>
        <mxCell id="sfGrmgE_HAS5Mbok9vDj-68" value="" style="endArrow=none;html=1;rounded=0;" edge="1" parent="1" source="sfGrmgE_HAS5Mbok9vDj-66" target="sfGrmgE_HAS5Mbok9vDj-17">
          <mxGeometry width="50" height="50" relative="1" as="geometry">
            <mxPoint x="540" y="-360" as="sourcePoint" />
            <mxPoint x="590" y="-410" as="targetPoint" />
          </mxGeometry>
        </mxCell>
        <mxCell id="sfGrmgE_HAS5Mbok9vDj-74" value="" style="endArrow=classic;dashed=1;endFill=1;endSize=12;html=1;rounded=0;fontFamily=Helvetica;fontSize=12;fontColor=default;" edge="1" parent="1" source="sfGrmgE_HAS5Mbok9vDj-21" target="sfGrmgE_HAS5Mbok9vDj-9">
          <mxGeometry width="160" relative="1" as="geometry">
            <mxPoint x="660" y="-380" as="sourcePoint" />
            <mxPoint x="660" y="-430" as="targetPoint" />
          </mxGeometry>
        </mxCell>
        <mxCell id="sfGrmgE_HAS5Mbok9vDj-78" value="" style="endArrow=classic;dashed=1;endFill=1;endSize=12;html=1;rounded=0;fontFamily=Helvetica;fontSize=12;fontColor=default;" edge="1" parent="1" source="sfGrmgE_HAS5Mbok9vDj-36" target="sfGrmgE_HAS5Mbok9vDj-9">
          <mxGeometry width="160" relative="1" as="geometry">
            <mxPoint x="668" y="-70" as="sourcePoint" />
            <mxPoint x="550" y="-39" as="targetPoint" />
          </mxGeometry>
        </mxCell>
      </root>
    </mxGraphModel>
  </diagram>
</mxfile>
